<svg width="500" height="113" viewBox="0 0 500 113" fill="none" xmlns="http://www.w3.org/2000/svg">
<path fill-rule="evenodd" clip-rule="evenodd" d="M116.048 20.3594L116.116 29.0313L118.611 29.3698C121.855 29.8021 123.809 30.4479 127.751 32.401C129.507 33.2656 133.001 36.1302 135.121 38.4375C138.621 42.25 141.137 48.3125 141.803 54.5677L141.866 55.1771L149.329 55.1719C153.434 55.1719 157.345 55.1667 158.022 55.1667L159.257 55.1614L159.105 52.5781C158.928 49.5677 157.663 43.3281 156.72 40.8489C154.283 34.3906 149.35 27.1042 144.783 23.2188C138.376 17.7604 132.272 14.6146 124.772 12.8906C122.533 12.3802 117.621 11.6875 116.22 11.6875C116.079 11.6875 116.007 15.2917 116.048 20.3594ZM10.8451 22.2292L5.21484 22.3021L5.35026 90.0209H16.7409V72.6719L21.2461 68.0833C23.7253 65.5625 26.4492 62.7552 27.293 61.8489C28.1419 60.9427 28.8815 60.1979 28.9388 60.1979C28.9961 60.1979 30.2096 61.5833 31.6367 63.276C36.2409 68.7344 40.7201 74.0625 42.3971 76.0834C43.2982 77.1667 45.1732 79.3802 46.5534 81.0052C47.9388 82.625 50.1471 85.2709 51.4596 86.8854C53.7044 89.6459 53.9076 89.8229 55.0065 89.9844C56.4544 90.1927 68.0221 90.2084 68.0221 90C68.0221 89.8073 63.4023 84.2344 58.4805 78.4896C56.418 76.0834 53.6992 72.8698 52.4336 71.3542C51.168 69.8334 47.1159 64.9635 43.4284 60.5312L36.7253 52.4739L42.0378 46.9583C44.9596 43.9219 47.5273 41.2917 47.7461 41.1146C47.9648 40.9323 52.2096 36.625 57.1836 31.5365L66.2305 22.2917H52.5326L34.6003 40.3698L16.668 58.4531L16.7565 40.375C16.7982 30.4323 16.7565 22.2656 16.6576 22.2292C16.5586 22.1875 13.944 22.1875 10.8451 22.2292ZM174.23 22.5052C174.184 22.7187 174.189 24.9063 174.23 27.3646L174.309 31.8333H190.871C209.194 31.8333 209.423 31.849 213.116 33.5417C215.361 34.5729 218.116 37.0417 219.163 38.9635C220.048 40.5937 220.647 43.2917 220.652 45.6719C220.668 51.2604 218.074 55.4739 213.178 57.8229C209.553 59.5625 208.673 59.6562 196.611 59.6614L185.944 59.6667V46.9583C185.944 39.9687 185.85 34.1927 185.736 34.1198C185.621 34.0521 184.876 34.4896 184.079 35.099C183.283 35.7083 180.783 37.526 178.522 39.1458L174.418 42.0885L174.35 65.9583L174.283 89.8229L174.829 89.9688C175.132 90.0469 177.751 90.125 180.658 90.1406L185.939 90.1719L186.007 79.7604L186.074 69.3437L196.184 69.276L206.288 69.2031L208.507 72.2917C209.725 73.9896 211.376 76.3021 212.178 77.4323C213.314 79.0365 214.454 80.6354 215.595 82.2396C216.678 83.75 218.21 85.9011 219.007 87.0209C221.47 90.4844 220.543 90.1511 227.72 90.1511C234.793 90.1511 234.392 90.349 232.507 87.8542C231.069 85.9636 223.194 75.0521 220.027 70.5677C218.757 68.7656 217.767 67.1458 217.835 66.9739C217.902 66.7969 218.892 66.2656 220.033 65.7864C222.632 64.6979 224.111 63.625 226.408 61.151C228.699 58.6823 229.788 56.849 230.892 53.625C232.632 48.526 232.658 43.2969 230.97 38.125C228.975 32.0208 225.611 28.0729 220.163 25.4375C217.402 24.1042 216.257 23.6927 213.902 23.1927C209.689 22.3021 208.121 22.2292 191.319 22.1719C176.475 22.1198 174.298 22.1615 174.23 22.5052ZM246.48 22.3698C246.408 22.5573 246.382 24.7292 246.423 27.2031L246.496 31.7031L264.116 31.8385L281.741 31.9792L284.392 32.7083C288.892 33.9531 292.475 36.0677 295.46 39.2292C301.553 45.6927 303.449 56.1562 300.158 65.1042C298.986 68.2864 297.757 70.2396 295.277 72.8594C291.538 76.8073 288.194 78.6354 282.418 79.8698C279.772 80.4375 279.033 80.474 268.887 80.474L258.158 80.4792L258.022 57.1979L257.892 33.9219L253.48 37.1875C251.059 38.9792 248.491 40.8698 247.783 41.3802L246.496 42.3125L246.361 89.8229L246.96 89.9844C248.022 90.2709 278.569 90.1667 281.288 89.8698C285.001 89.4636 288.355 88.6823 292.033 87.3802C296.658 85.7396 299.355 84.0625 302.897 80.6354C309.22 74.5052 312.324 68.0937 313.173 59.401C313.803 52.9167 312.725 46.6875 309.996 41.0208C306.335 33.4323 299.725 27.5 291.678 24.5833C285.47 22.3385 281.908 22.0365 261.491 22.0365C249.689 22.0312 246.579 22.1042 246.48 22.3698ZM379.059 22.3177C378.803 22.4635 378.595 22.7187 378.595 22.8906C378.595 23.0573 377.746 24.9896 376.71 27.1823C374.866 31.0781 373.022 34.9688 371.178 38.8594C368.694 44.1094 366.22 49.3698 363.762 54.6302C361.689 59.0781 359.408 63.9323 358.694 65.4167C357.871 67.1354 357.053 68.8542 356.251 70.5833C355.517 72.1614 354.772 73.7396 354.022 75.3073C353.428 76.5469 352.105 79.349 351.09 81.5365C350.069 83.724 348.803 86.4375 348.267 87.5729C347.736 88.7031 347.371 89.7448 347.46 89.8906C347.559 90.0521 349.897 90.1511 353.444 90.1511C358.751 90.1511 359.283 90.1146 359.428 89.6875C359.923 88.2448 364.6 77.8646 366.158 74.7448C366.861 73.3438 367.908 71.0781 368.48 69.7083C369.059 68.3437 370.329 65.4948 371.314 63.3802C372.293 61.2656 373.725 58.1042 374.496 56.3542C376.413 52 380.1 43.8802 380.548 43.0156C380.97 42.2135 384.262 34.6302 384.533 33.8438C384.637 33.5417 384.803 33.4375 384.939 33.5781C385.199 33.8542 387.564 38.9792 389.454 43.3646C390.147 44.9687 392.116 49.3802 393.824 53.1719C398.663 63.8958 398.694 63.9687 398.553 64.3489C398.439 64.6354 396.616 64.7031 388.803 64.7031H379.194L376.934 69.2083L374.678 73.7136L388.98 73.7813L403.277 73.849L404.684 77.0313C406.361 80.8334 408.439 85.3021 409.803 88.0313L410.793 90.0209L416.605 90.0938C419.798 90.1302 422.517 90.0625 422.642 89.9375C422.767 89.8125 421.564 87.0365 419.975 83.7709C415.512 74.5886 414.22 71.875 411.694 66.2969C410.402 63.4531 409.09 60.651 408.783 60.0677C408.251 59.0677 406.835 56.0625 403.236 48.2708C402.397 46.4479 399.954 41.2552 397.809 36.7396C395.663 32.2188 393.246 27.0625 392.434 25.276L390.965 22.0312L385.246 22.0417C381.918 22.0469 379.329 22.1615 379.059 22.3177ZM432.658 56.0625C432.658 88.3281 432.678 89.9531 433.121 89.5781C434.111 88.7344 439.783 84.0781 441.73 82.5L443.788 80.8386V61.0885C443.788 48.5989 443.876 41.3646 444.038 41.4219C444.178 41.4687 445.996 43.5521 448.079 46.0521C450.163 48.5469 453.658 52.7135 455.845 55.3073C458.027 57.901 460.642 61.0417 461.647 62.2969C462.658 63.5469 464.277 65.4687 465.251 66.5625C466.22 67.6562 467.668 69.3906 468.46 70.4167C469.251 71.4479 470.512 73 471.262 73.8646C474.288 77.3646 479.293 83.2813 481.34 85.7813C482.533 87.2396 483.845 88.8229 484.251 89.2969L484.991 90.1667L489.996 90.0938L494.996 90.0209L494.954 56.2344C494.928 37.651 494.866 22.4062 494.819 22.3542C494.767 22.3073 493.548 23.224 492.111 24.401C490.21 25.9531 488.309 27.5 486.402 29.0521L483.309 31.5677L483.355 50.9219C483.382 61.5625 483.335 70.2708 483.257 70.2708C483.178 70.2708 481.746 68.6458 480.079 66.6614C478.142 64.3646 476.204 62.0677 474.262 59.7812C472.189 57.3437 470.126 54.901 468.069 52.4583C466.34 50.3958 464.605 48.3385 462.866 46.2812C457.111 39.4948 454.684 36.625 451.975 33.401C449.923 30.9635 447.861 28.5313 445.788 26.1094C444.048 24.0833 442.59 22.3802 442.559 22.3281C442.522 22.276 440.277 22.2135 437.574 22.1927L432.658 22.1562V56.0625ZM336.85 23.2917C336.257 23.8333 333.783 25.9219 331.35 27.9323L326.918 31.5885L326.986 60.8073L327.053 90.0209L332.684 90.0938L338.319 90.1615V56.2292C338.319 37.5625 338.225 22.2917 338.116 22.2969C338.007 22.3021 337.439 22.75 336.85 23.2917ZM71.0326 59.8437C71.3451 65.3906 72.4753 69.6094 75.0846 74.9844C79.3346 83.75 85.4232 90.2084 93.8503 94.8959C98.5482 97.5104 103.725 99.2344 109.392 100.073C113.142 100.63 114.507 100.63 114.288 100.073C114.199 99.8438 114.132 95.9219 114.132 91.3594V83.0677L112.382 82.8906C106.986 82.3386 101.762 80.0104 97.3451 76.1979C92.793 72.2656 89.6263 66.3906 88.4284 59.6458C88.2565 58.6875 88.1576 57.7031 88.2044 57.4583C88.2826 57.0521 87.5586 57.0104 79.5742 56.9479L70.8607 56.8854L71.0326 59.8437Z" fill="white"/>
<path fill-rule="evenodd" clip-rule="evenodd" d="M108.699 12.3964C104.694 12.9016 99.8607 14.3495 95.9909 16.2089C93.1315 17.5787 88.1003 20.761 87.2305 21.7454L86.7044 22.3495L89.5586 24.9746L90.3815 24.1829C91.9909 22.636 92.2669 22.7246 95.2461 25.7714L97.9023 28.4902L100.652 27.136C102.163 26.3912 104.111 25.5475 104.986 25.2558C106.908 24.6204 111.105 23.8808 112.819 23.8808C114.21 23.8808 114.382 23.636 114.392 21.6516V20.6204L111.548 20.7923C108.454 20.985 107.251 21.2037 104.548 22.0683C103.335 22.4589 102.824 22.7454 102.918 22.9902C103.085 23.4225 101.611 24.9433 101.017 24.9433C100.783 24.9433 100.251 24.7662 99.8398 24.5527C98.5534 23.8912 98.4076 22.7506 99.444 21.5162C100.189 20.6308 100.98 20.485 101.819 21.0683C102.288 21.3964 102.673 21.3339 105.085 20.5527C108.335 19.5006 109.928 19.162 112.345 19.0214C113.329 18.9641 114.132 18.8391 114.132 18.7454C114.132 18.6568 114.132 18.0891 114.132 17.485V16.386L111.47 16.5162C109.079 16.6308 108.736 16.7141 108.09 17.3183C107.074 18.2662 106.35 18.4225 105.272 17.9068C104.236 17.4173 104.105 17.4433 100.027 18.9277C98.1263 19.6204 97.6576 19.9068 97.4076 20.511C97.2357 20.9173 96.8815 21.3652 96.6211 21.5058C95.9284 21.8756 94.6992 21.8183 94.1107 21.386C93.4232 20.886 93.444 18.912 94.1419 18.4016C94.6732 18.011 96.3138 17.9381 96.8503 18.2766C97.0586 18.4068 98.5169 18.0162 100.585 17.2766C103.345 16.2818 104.147 15.8704 104.908 15.0631C105.98 13.9329 106.48 13.8548 107.741 14.6256C108.251 14.9329 108.882 15.11 109.199 15.0318C109.507 14.9589 110.746 14.8704 111.949 14.8443C113.158 14.8183 114.194 14.7141 114.251 14.6204C114.309 14.5266 114.293 13.9433 114.21 13.3339L114.059 12.2193L111.777 12.2558C110.522 12.2818 109.137 12.3443 108.699 12.3964ZM106.022 15.7714C105.913 16.0475 106.012 16.4068 106.267 16.6568C106.652 17.0475 106.704 17.0423 106.866 16.6204C106.975 16.3391 106.876 15.985 106.621 15.7298C106.236 15.3391 106.184 15.3443 106.022 15.7714ZM94.7826 19.912C94.7826 20.6204 95.5117 20.8808 96.0273 20.3652C96.5482 19.8443 96.2669 19.3756 95.4336 19.3756C94.9596 19.3756 94.7826 19.5214 94.7826 19.912ZM100.121 22.3808C99.6628 22.9277 100.366 23.7298 101.1 23.5006C101.736 23.2975 101.84 22.8287 101.355 22.3443C100.939 21.9277 100.486 21.9433 100.121 22.3808ZM90.9961 25.1516L90.2878 25.8912L95.2148 30.7975L96.1576 30.0475L97.1003 29.2923L94.5065 26.8548C93.0794 25.511 91.8659 24.4121 91.8086 24.4121C91.7513 24.4121 91.3867 24.7454 90.9961 25.1516ZM81.1992 27.3704C79.319 29.6777 76.1159 34.6777 75.0273 37.0058C72.4544 42.511 70.2096 51.9902 70.8867 54.4902C71.0898 55.2402 71.1576 55.2714 72.4076 55.1933C73.1263 55.1516 73.7409 55.0943 73.7669 55.0631C73.7982 55.037 74.0065 53.4902 74.2357 51.6256C74.6471 48.2975 74.6471 48.2193 74.1211 47.5527C73.8242 47.1777 73.5846 46.5475 73.5846 46.1568C73.5846 45.3287 74.3815 44.485 75.0378 44.6048C75.3867 44.6725 75.6836 44.1516 76.3503 42.3079C77.3867 39.4329 78.9388 36.2975 79.9805 34.9798C80.4701 34.3548 80.7409 33.6985 80.7461 33.1204C80.7461 32.0839 80.9232 31.761 81.7148 31.3444C83.194 30.5631 84.9805 31.4589 84.9805 32.9798C84.9805 33.8808 83.6732 34.7454 82.319 34.7506C81.4701 34.7506 81.3034 34.886 80.543 36.1412C79.7721 37.4173 76.7669 44.0162 76.7669 44.4277C76.7669 44.5266 77.0013 44.912 77.293 45.2818C78.0638 46.261 77.9648 46.6464 76.6263 47.8912L75.4232 49.011L75.2565 52.0891L75.0951 55.162L76.0638 55.2089C78.3398 55.3183 78.1419 55.485 78.2617 53.4381C78.4284 50.7089 79.0586 47.5214 79.9909 44.7506C80.5638 43.0631 80.7982 41.8808 80.7617 40.9277C80.7201 39.7245 80.793 39.5006 81.3711 39.1204C82.2721 38.5318 83.3607 38.7141 83.9961 39.5631C84.7878 40.636 84.444 41.5527 83.0117 42.1673C81.8659 42.6568 81.8451 42.6829 81.0534 45.2662C79.7044 49.6516 79.5065 50.8964 79.6367 54.1673L79.6784 55.162H81.2409C82.9753 55.162 83.1263 55.0162 83.1263 53.3495C83.1263 51.8912 83.8398 48.11 84.4857 46.1568C85.8763 41.9485 87.9336 38.235 90.2617 35.7089C90.9232 34.9902 91.1003 34.6464 90.8503 34.5527C90.6523 34.485 90.0898 34.0683 89.5951 33.636L88.694 32.8444L88.0013 33.6725C87.0169 34.8444 86.3398 35.1621 85.8607 34.6829C85.5273 34.3496 85.5638 34.2454 86.1315 33.8756C86.4909 33.6412 87.0273 33.1048 87.3242 32.6881L87.8659 31.9277L85.0013 29.0735L82.1419 26.2194L81.1992 27.3704ZM82.1263 32.1464C81.6211 32.6464 81.7409 33.3704 82.3607 33.5683C83.1419 33.8131 83.8867 33.0579 83.4909 32.4277C83.1211 31.8443 82.543 31.7246 82.1263 32.1464ZM81.8034 39.9173C81.3398 40.4745 81.668 41.11 82.4232 41.11C83.2982 41.11 83.8346 40.4537 83.3919 39.9173C82.9701 39.412 82.2253 39.412 81.8034 39.9173ZM74.9648 45.6725C74.5169 46.1152 74.569 46.8131 75.0742 47.235C75.4388 47.537 75.5742 47.5006 76.0065 46.9641C76.4805 46.3756 76.4857 46.3079 76.069 45.8443C75.5482 45.2662 75.3919 45.2454 74.9648 45.6725ZM156.72 57.2818C156.428 57.2818 156.309 58.0162 156.173 60.6516C156.069 62.7558 156.1 64.1204 156.267 64.2818C156.6 64.6204 156.605 65.9225 156.272 66.5475C156.132 66.8131 155.73 67.0995 155.392 67.1881C154.887 67.3131 154.579 67.8495 153.751 70.0683C152.819 72.5475 151.335 75.7402 150.314 77.4277C150.095 77.7923 149.793 78.5839 149.642 79.1829C149.496 79.7871 149.126 80.5892 148.824 80.9694C148.293 81.6465 148.257 81.6569 147.303 81.2558C146.767 81.0319 145.715 80.2454 144.965 79.511L143.6 78.1673L143.043 78.9225C142.736 79.3444 142.486 79.8027 142.491 79.9485C142.496 80.0944 143.553 81.2871 144.84 82.5996C146.126 83.9121 147.303 85.2246 147.465 85.5162C147.736 86.011 147.819 85.9694 148.928 84.7819C151.486 82.0423 154.678 76.636 156.387 72.1465C156.913 70.7819 157.626 68.2193 157.98 66.4537C158.621 63.2662 159.309 57.8027 159.137 57.2818C156.637 57.3056 157.526 57.2818 156.72 57.2818ZM153.944 64.6152C153.428 64.8235 153.553 65.4485 154.173 65.7818C154.616 66.0214 154.819 65.9954 155.137 65.6777C155.908 64.9068 155.069 64.162 153.944 64.6152ZM147.418 70.6777C147.027 71.0683 147.163 72.1933 147.6 72.1465C147.699 72.136 147.897 72.1256 148.033 72.1256C148.376 72.1256 148.626 71.2298 148.423 70.7089C148.215 70.162 147.939 70.1568 147.418 70.6777ZM147.142 78.6412C146.642 79.1412 146.611 79.5944 147.043 80.0267C147.533 80.5214 148.043 80.4069 148.293 79.7506C148.522 79.136 148.225 78.2246 147.793 78.2246C147.663 78.2246 147.371 78.4121 147.142 78.6412ZM134.559 81.9694C134.204 82.2558 133.73 82.5944 133.496 82.7298C133.152 82.9225 133.632 83.5162 136.079 85.9329C138.027 87.8548 138.991 88.985 138.819 89.1517C138.345 89.6308 137.538 89.0944 135.746 87.0996C134.767 86.0058 133.564 84.8079 133.079 84.4381L132.194 83.761L129.189 85.2142C125.855 86.8287 123.007 87.6308 119.033 88.084C117.574 88.2454 116.277 88.4746 116.152 88.584C116.022 88.6985 116.001 89.4537 116.1 90.2662L116.288 91.7454H117.892C119.434 91.7454 125.293 90.6985 126.663 90.1725C127.1 90.0058 127.392 89.636 127.507 89.1048C127.96 87.0631 131.09 87.4173 131.09 89.5162C131.09 90.4017 130.095 91.4798 129.283 91.4746C128.892 91.4746 128.402 91.3652 128.199 91.235C127.97 91.0892 127.324 91.1517 126.517 91.3912C124.001 92.136 119.022 93.0631 117.507 93.0683H115.986V96.3235L118.038 96.1517C121.366 95.8652 122.345 95.6829 122.345 95.334C122.345 94.8756 123.225 94.1308 123.767 94.1308C124.022 94.1308 124.595 94.3235 125.048 94.5579C125.996 95.0475 126.595 94.9277 130.163 93.5423C132.725 92.5475 132.866 92.4485 133.085 91.4433C133.423 89.8912 135.746 89.9277 136.397 91.4954C136.684 92.1933 136.647 92.3704 135.991 93.2246C135.376 94.0371 135.158 94.1517 134.569 93.9954C133.225 93.636 132.257 93.8079 129.225 94.9537C126.611 95.9381 126.111 96.2246 125.777 96.9017C125.236 98.0267 124.069 98.3131 122.715 97.6621C121.84 97.2402 121.267 97.1881 118.944 97.3027L116.204 97.4433L116.121 98.9694L116.043 100.49H117.272C122.501 100.48 130.642 98.3548 135.512 95.7246C137.991 94.3912 142.46 91.4485 143.116 90.7246C143.605 90.1777 143.595 90.1517 142.272 88.636C141.538 87.7975 139.642 85.8339 138.064 84.2767L135.194 81.4485L134.559 81.9694ZM128.757 89.1465C128.371 89.5319 128.34 90.3287 128.704 90.5527C129.105 90.7975 129.96 90.4589 130.142 89.9798C130.465 89.136 129.408 88.5006 128.757 89.1465ZM134.158 91.6308C133.642 92.1465 133.632 92.386 134.121 92.7923C134.402 93.0267 134.642 93.0319 135.048 92.8131C135.678 92.4746 135.689 92.4173 135.319 91.7246C134.986 91.1048 134.704 91.084 134.158 91.6308ZM123.423 95.5631C122.908 96.1881 123.184 96.9121 123.939 96.9121C124.491 96.9121 124.595 96.7871 124.595 96.1204C124.595 95.2246 123.954 94.9225 123.423 95.5631Z" fill="url(#paint0_linear_273_2)"/>
<path d="M141.574 59.8964C140.475 66.6204 137.329 72.386 132.47 76.5683C128.507 79.9798 122.991 82.3652 117.704 82.9537L116.116 83.1308V87.1048L117.574 87.0319C122.939 86.7558 127.579 85.2037 132.475 82.0423C133.46 81.4121 134.47 80.6465 134.725 80.3496C135.178 79.8183 135.267 79.8912 140.293 84.9121C143.1 87.7194 145.397 90.1464 145.397 90.3079C145.397 90.6829 141.361 93.6777 138.684 95.2975C132.241 99.1829 124.329 101.553 117.777 101.553H115.986V105.527H118.303C125.48 105.521 134.194 102.896 141.158 98.6465C149.736 93.4121 156.866 85.0475 160.715 75.7037C161.553 73.6673 162.934 69.1204 163.408 66.8235C163.824 64.8287 164.475 59.5214 164.475 58.136V57.0631L160.842 57.1516C160.74 57.4114 160.637 57.9893 160.611 58.6829C160.355 65.1412 157.84 73.636 154.538 79.2142C152.319 82.9589 148.715 87.5006 147.965 87.5006C147.814 87.5006 146.616 86.3392 145.303 84.9173C143.991 83.4954 141.803 81.2246 140.449 79.8756C139.09 78.5215 137.98 77.3548 137.98 77.2767C137.98 77.1985 138.699 76.1881 139.579 75.0319C143.34 70.084 145.647 63.6568 145.663 58.0787V57.1516H142.017L141.574 59.8964Z" fill="url(#paint1_linear_273_2)"/>
<path d="M147.053 60.0683C146.454 65.9537 144.225 71.3235 140.423 76.0579L139.501 77.2037L140.397 78.1725C140.887 78.709 141.324 79.1985 141.361 79.261C141.397 79.3235 141.855 78.8808 142.376 78.2715C143.465 76.9954 144.001 76.9017 144.871 77.8287L145.496 78.4954L146.178 77.8496C146.611 77.4329 147.241 77.1673 147.918 77.1152C148.944 77.0319 149.007 76.9694 150.1 74.9277C150.72 73.7767 151.699 71.5995 152.277 70.1048C153.288 67.4902 153.314 67.3391 152.944 66.4485C152.303 64.9173 152.434 64.3756 153.616 63.6464C154.632 63.0162 154.673 62.9381 154.673 61.5943V57.2818L152.288 57.1516L151.939 59.3964C151.762 61.6985 151.319 63.6725 150.246 66.9537C149.814 68.2818 149.548 69.7089 149.533 70.7975C149.507 72.4954 149.491 72.5319 148.59 72.9798C147.715 73.4173 147.642 73.4173 146.871 72.9277C146.262 72.5423 146.043 72.1881 145.98 71.4902C145.871 70.2402 146.272 69.5787 147.355 69.2193C148.34 68.8964 148.486 68.6308 149.35 65.6308C149.991 63.412 150.423 60.61 150.428 58.61L150.434 57.1516H147.345L147.053 60.0683Z" fill="url(#paint2_linear_273_2)"/>
<path d="M106.444 7.33393C88.7669 10.1829 73.5013 23.4173 67.944 40.7141C66.7721 44.36 65.6523 49.7975 65.4492 52.8443L65.293 55.162H67.4805C69.293 55.162 69.6419 55.0943 69.5169 54.7714C69.4336 54.5579 69.4753 53.6933 69.6107 52.8495C69.7409 52.0058 70.043 50.0683 70.2721 48.537C71.5065 40.386 75.6419 31.5787 80.793 26.1412L82.3034 24.5423L87.3971 29.6256C92.1315 34.3496 92.4648 34.7454 92.1159 35.2194C91.9076 35.5006 91.0117 36.6881 90.1263 37.8548C87.0534 41.9016 84.7721 47.8808 84.2982 53.1256L84.1159 55.1152L86.0951 55.2037L88.0794 55.2923L88.543 52.3912C89.0534 49.1725 90.3919 45.1516 91.5273 43.4277C91.9336 42.8131 92.5065 41.8287 92.7982 41.2454C93.4544 39.9277 97.0326 36.1516 99.1523 34.5423C102.684 31.8548 107.257 29.9746 111.527 29.4589C112.876 29.2923 114.074 29.0162 114.184 28.8391C114.293 28.6621 114.387 27.8183 114.392 26.9589V25.3964L111.548 25.5423C109.6 25.6464 107.944 25.9121 106.314 26.3964C101.975 27.6725 100.074 28.6464 95.7721 31.7766L94.944 32.386L89.9596 27.3235C87.2201 24.5371 84.9805 22.1673 84.9805 22.0527C84.9805 21.7506 87.1576 19.9745 89.6523 18.2298C92.2669 16.4016 97.3919 13.8912 101.111 12.61C104.199 11.5527 109.09 10.6256 111.616 10.6256C114.027 10.6256 114.132 10.5527 114.132 8.87559C114.132 8.87559 114.251 7.23028 114 7.00054C113.749 6.7708 110.5 7.00054 110.5 7.00054L106.444 7.33393Z" fill="url(#paint3_linear_273_2)"/>
<defs>
<linearGradient id="paint0_linear_273_2" x1="164" y1="56" x2="114.884" y2="105.527" gradientUnits="userSpaceOnUse">
<stop stop-color="#4D73EF"/>
<stop offset="1" stop-color="#3545AF"/>
</linearGradient>
<linearGradient id="paint1_linear_273_2" x1="164" y1="56" x2="114.884" y2="105.527" gradientUnits="userSpaceOnUse">
<stop stop-color="#4D73EF"/>
<stop offset="1" stop-color="#3545AF"/>
</linearGradient>
<linearGradient id="paint2_linear_273_2" x1="164" y1="56" x2="114.884" y2="105.527" gradientUnits="userSpaceOnUse">
<stop stop-color="#4D73EF"/>
<stop offset="1" stop-color="#3545AF"/>
</linearGradient>
<linearGradient id="paint3_linear_273_2" x1="164" y1="56" x2="114.884" y2="105.527" gradientUnits="userSpaceOnUse">
<stop stop-color="#4D73EF"/>
<stop offset="1" stop-color="#3545AF"/>
</linearGradient>
</defs>
</svg>
